<svg id="Layer_1" data-name="Layer 1" xmlns="http://www.w3.org/2000/svg" viewBox="0 0 406.27 206.66"><defs><style>.cls-1{fill:#fff;}</style></defs><path class="cls-1" d="M874.39,353.06c1.67-5.68,3.41-11.34,5-17q2.24-8.07,4.23-16.22c1.15-4.76,2.09-9.57,3.15-14.36,1.33-6,2.65-11.92,4-17.87a9.35,9.35,0,0,1,3.9-5.76,37.68,37.68,0,0,1,16.06-6.43c3.89-.53,5.69.8,6.72,4.57a29,29,0,0,1,.56,12.84,45.14,45.14,0,0,0-.22,5.35c-.29,5.47-.59,10.93-.93,16.39,0,.85-.47,1.68-.52,2.54-.21,3.2-.53,6.37,1.28,9.39,2.36,3.92,2.92,8.4,2.91,12.86,0,13.39-.08,26.78-.41,40.17a158.37,158.37,0,0,0,.62,21.78c.58,5,1,10.11,1.23,15.18a23.17,23.17,0,0,1-1,7.45,5.79,5.79,0,0,1-6,4.35,10.43,10.43,0,0,0-6.1,2.05A16.4,16.4,0,0,1,896,432.71c-2.29-.51-3.37-1.85-3.52-4.24-.46-7.47.43-14.86,1.1-22.27.54-6,1.1-12,1.27-18,.24-8.25.12-16.51.15-24.76,0-.55-.11-1.11-.21-2.18-.67.76-1.21,1.13-1.39,1.62-3.65,10.35-8.69,20.09-13.28,30-1.63,3.51-2.27,7.47-3.55,11.16a12.79,12.79,0,0,1-2.39,4.12,6.14,6.14,0,0,1-9.71-.85c-.87-1.47-1-3.4-1.38-5.14-1-4.67-1.8-9.38-2.81-14-.93-4.27-1.85-8.56-3.1-12.75-1.33-4.46-3-8.81-4.62-13.19a10,10,0,0,0-1.39-1.91c-.38,1.7-.7,3-.95,4.23-1,5.09-2.08,10.15-2.85,15.27-.53,3.47-.41,7-.89,10.52-.59,4.32-1.54,8.59-2.26,12.89a101.14,101.14,0,0,0-1.46,10.06c-.44,6.74-.3,13.52-1,20.23-.5,5.07-1.43,10.16-4.13,14.7-2,3.32-4.52,5.74-8.39,6.74a20.48,20.48,0,0,0-4.87,2.2c-2.65,1.48-5.3,2.5-8.41,1.54-1.59-.49-3.29-.59-4.88-1.07a2.64,2.64,0,0,1-2-3.36,15.78,15.78,0,0,1,1-3.63,62,62,0,0,0,5.9-20.32c.74-6.69,1-13.43,1.54-20.15.28-3.26.72-6.53,1.3-9.76a48.84,48.84,0,0,0-.39-21.25,23.08,23.08,0,0,1-.09-12.15c2.53-9,5.13-17.93,7.68-26.91a18.8,18.8,0,0,0,.29-2.39q1.14-7.77,2.3-15.53c.4-2.68.87-5.35,1.22-8,.67-5.08,1-10.2,2-15.23.56-3,2.13-5.72,3-8.65,1.27-4.47,4.55-6.62,8.5-8.41,3.08-1.4,6.2-1.29,9.34-1.14,2.46.12,3.78,2,4.78,4,2.27,4.72,2.76,9.86,3.39,15,.94,7.61,1.58,15.27,2.68,22.86.56,3.85,2,7.56,2.74,11.4,1.14,6.21,3.72,11.85,6.28,17.52a10.85,10.85,0,0,0,1,1.52Z" transform="translate(-515.73 -270.39)"/><path class="cls-1" d="M728.47,371.59c.19-6.69.15-13.4.65-20.07.31-4,1.47-8,2.22-12,.53-2.89,1.19-5.77,1.49-8.69.59-5.53,2.73-10.57,4.8-15.62,2.18-5.33,4.51-10.6,6.79-15.89.54-1.27,1.13-2.53,1.73-3.77,1.85-3.84,3.27-8,5.67-11.45,6-8.66,14.9-15.14,25.74-13.37a20.16,20.16,0,0,1,6.7,3c8.59,5.17,14.5,12.68,18.82,21.62,1.68,3.49,3.55,6.84,3.88,10.82a4.89,4.89,0,0,0,1.44,2.68,8.62,8.62,0,0,1,2.29,5.46c.46,4.35,1,8.68,1.34,13,.34,4.7.71,9.42.59,14.12-.25,9.81-.7,19.61-1.27,29.4-.45,7.8-2.38,15.36-4.1,22.95a130.72,130.72,0,0,0-2.72,15.3c-.75,7.33-3.33,13.94-6.58,20.42-2,4.07-3.68,8.34-5.72,12.4-1.8,3.6-3.74,7.15-6.94,9.83a29.66,29.66,0,0,0-3,3.31c-5.8,6.6-12.89,10.24-21.8,8.41-5.7-1.17-9.91-4.82-13.13-9.74-5.93-9.06-9.37-19.13-12.19-29.42a200.86,200.86,0,0,1-4.77-21.06,179,179,0,0,1-1.52-19c-.22-4.2,0-8.42,0-12.64ZM751,393.71l-.42.05c.45,3.47.79,7,1.38,10.4a77,77,0,0,0,1.88,8.08c2,7.09,4,14.18,6.24,21.21,1.06,3.38,4,4.33,7,2.5a21.16,21.16,0,0,0,8-9.16,68.58,68.58,0,0,0,6.43-22.68c1.12-9.15,1.6-18.38,2.55-27.56.61-5.9,1.34-11.81,2.43-17.63.67-3.58,1.63-7.09,1.34-10.76-.61-7.53-1.19-15.06-1.94-22.58-.59-5.9-1.3-11.8-2.21-17.67-.57-3.64-2.83-6.34-5.84-8.45a2,2,0,0,0-3,.35,55.92,55.92,0,0,0-13.62,24.3q-2,7.15-3.69,14.39c-1.38,5.82-2.63,11.67-2.44,17.73a90.94,90.94,0,0,1-.21,10,83.82,83.82,0,0,1-1.33,9C752.34,381.39,750.59,387.4,751,393.71Z" transform="translate(-515.73 -270.39)"/><path class="cls-1" d="M567.2,405.09a21.61,21.61,0,0,0-2.37,1.46,27.63,27.63,0,0,1-11.92,5.61c-3.26.74-4.66,2.68-5,6-.48,5.51-.79,11-1.41,16.54-.8,7-1.75,14.06-2.78,21.07-.7,4.78-4.59,7.15-8.66,8.12-3.36.8-6.79,1.32-10.21,1.78-3.7.5-6.42-1.45-8.76-4a2.46,2.46,0,0,1-.37-1.81c.28-2,.67-4,1.08-5.93,1.39-6.77,3-13.5,4.18-20.3,1.4-8,2.65-16,3.6-24.11,1-8.87,1.64-17.8,2.52-26.69.48-4.74,1.41-9.33,4.75-13.09a13.9,13.9,0,0,0,3.29-9.43c.06-5.31-.28-10.66.32-15.91.63-5.47,2.15-10.84,3.33-16.24s2.45-10.53,3.49-15.84c.66-3.4,3.13-4.93,5.82-6.36,5.22-2.77,11-3.27,16.7-4.17,2.53-.4,3.87.19,4.89,2.58a100.58,100.58,0,0,1,3.79,10.38q2.61,8.59,4.81,17.32c.75,3,1,6.14,1.59,9.19.75,4,1.49,7.92,2.43,11.83,1.3,5.42,2.16,10.83,1,16.41-.84,4.2-.43,8.19,2.76,11.45,3.35,3.42,4,7.94,5.12,12.29,1.18,4.75,2.35,9.51,3.46,14.28,1,4.2,1.86,8.42,2.86,12.62.68,2.85,1.37,5.72,2.31,8.49a27.73,27.73,0,0,1,1.57,10.17c-.14,3-.09,6-.09,9,0,3.19-1,5.95-3.66,7.82a83.27,83.27,0,0,1-8.57,5.52c-3.17,1.71-8,.68-10.41-1.94a7.67,7.67,0,0,1-1-2.44,1.24,1.24,0,0,1,0-.51c.42-7.79-1.48-15.21-3.51-22.63-1.61-5.89-3.06-11.82-4.48-17.76-.58-2.4-.83-4.87-1.33-7.29A31.75,31.75,0,0,0,567.2,405.09Zm-9.24-44-.54,0a38.34,38.34,0,0,0-2.74,4.59,11.36,11.36,0,0,0-1.31,5,50.89,50.89,0,0,1-1,14.1,4.39,4.39,0,0,0,.13,1.28,5.62,5.62,0,0,0,1.4-.33c2.51-1.39,4.94-2.91,7.48-4.23,2-1,2.14-1.25,1.48-3.47-1-3.26-1.91-6.52-2.84-9.79Q559,364.71,558,361.1Z" transform="translate(-515.73 -270.39)"/><path class="cls-1" d="M641.1,346.12c1-3.22,2-6.48,3.13-9.65,3.14-8.59,3.42-17.75,5.39-26.57.91-4,2-8.08,3.13-12a8.72,8.72,0,0,1,2.22-3.62,29.63,29.63,0,0,1,18.6-8.3,10.71,10.71,0,0,1,5.88,1.51c3.23,1.88,3.57,5.19,2.58,8.42-1.26,4.06-2.92,8-4.47,12a42.82,42.82,0,0,1-2.19,4.71c-3,5.55-4.29,11.66-6,17.64-1.67,5.81-3.76,11.5-5.61,17.26-2.29,7.13-4.53,14.28-6.79,21.43a1.14,1.14,0,0,1-.08.33c-1.78,3.16-.83,6.14.3,9.27,1.76,4.87,2.93,10,4.85,14.76s3.48,10.21,7.33,14.22a15.79,15.79,0,0,0,2.66,2.45c2.85,1.85,4.64,4.55,6.56,7.25,3.24,4.57,4.34,9.88,6,15a25.4,25.4,0,0,0,2.29,5.39,11.89,11.89,0,0,1,1,9.84,4.71,4.71,0,0,1-2.22,2.69,36.72,36.72,0,0,1-8.37,3.1,50.38,50.38,0,0,1-10.49.76c-3.74-.07-5.3-1.85-5.75-5.63A103.33,103.33,0,0,0,659.7,438a51.27,51.27,0,0,0-3.21-9.82,78.41,78.41,0,0,0-9.7-16.15c-.27-.36-.57-.7-1-1.27a20.83,20.83,0,0,0-1.27,1.88c-1.58,3-2.92,6.17-4.72,9-4.13,6.55-5.18,13.84-5.69,21.33-.42,6.1-1,12.19-1.49,18.29-.4,4.95-3.35,7.5-7.87,8.95-3.83,1.23-7.53,2.9-11.3,4.33a27.27,27.27,0,0,1-4.12,1.28c-4.22.86-7.34-1.72-6.93-6a24.41,24.41,0,0,1,2-8.37c4.08-8.29,6-17.12,7.76-26.1.69-3.64,2.26-7.13,3.61-10.61,1.83-4.72,3.73-9.42,5.8-14,2.18-4.85,2.83-10.08,4.24-15.12,1.17-4.16,2.42-8.3,3.64-12.45a11.11,11.11,0,0,0-.39-8.41c-1.4-2.83-2.38-5.88-3.75-8.73-1.52-3.17-3.3-6.21-4.92-9.32-3-5.73-6-11.44-8.87-17.22-4.07-8.21-8-16.51-12-24.73-1.89-3.84-1-6,3.51-7.49,4.71-1.57,9.42-3.13,14.14-4.64,3.79-1.22,6-.56,8.3,2.68a35.94,35.94,0,0,1,5.52,13.16c1.56,7,2.8,14,6,20.54.84,1.7,1.37,3.56,2.14,5.29a10.94,10.94,0,0,0,1.34,1.88Z" transform="translate(-515.73 -270.39)"/><path class="cls-1" d="M693.8,449.57c0-4.67.06-9.35,0-14a49.49,49.49,0,0,1,3.41-18.41,11.14,11.14,0,0,0,.28-7.31,65.4,65.4,0,0,1-2.32-25.17c.64-7.22,1.73-14.42,3.05-21.55,1.2-6.52,9.33-10.54,15.5-8.74,2.68.78,4,3,4.27,5.76.5,4.85-.63,9.5-1.57,14.2-.8,4-1.3,7.93,1.49,11.56a10.26,10.26,0,0,1,2,7c-.21,4,.09,8-.14,11.94-.33,5.75-1.23,11.48-1.36,17.23-.22,9.39-.11,18.8,0,28.2.09,5.64.77,11.27-.48,16.88-.63,2.81-2,5-4.68,6-3.72,1.36-7.47,2.72-11.3,3.72s-7.09-1.3-8-5.28a19.11,19.11,0,0,1-.32-3.78c0-6.06,0-12.12,0-18.19Z" transform="translate(-515.73 -270.39)"/><path class="cls-1" d="M727.78,300c-.22,3.61-.24,8.6-.88,13.51-.86,6.67-1.94,13.38-6.18,19-2.32,3.05-4.72,6-9,6.48-4.74.58-8.5-1-10.35-5.37a46,46,0,0,1-3.09-11.27,47,47,0,0,1-.33-12.58c.62-4.81,2.19-9.52,3.51-14.22a49.69,49.69,0,0,1,2.75-7.61,17.79,17.79,0,0,1,9.76-9.48c2.55-1,5.11-1.4,7.48.12a11,11,0,0,1,3.56,3.56C727.09,285.74,728,292.13,727.78,300Z" transform="translate(-515.73 -270.39)"/></svg>