<svg xmlns="http://www.w3.org/2000/svg" xmlns:xlink="http://www.w3.org/1999/xlink" width="4000" zoomAndPan="magnify" viewBox="0 0 3000 2999.999989" height="4000" preserveAspectRatio="xMidYMid meet" version="1.0"><defs><clipPath id="a53439379c"><path d="M 292.703125 1997 L 1949 1997 L 1949 2814.671875 L 292.703125 2814.671875 Z M 292.703125 1997 " clip-rule="nonzero"/></clipPath><clipPath id="ab1ab9df6a"><path d="M 1808 129.054688 L 2770 129.054688 L 2770 1090 L 1808 1090 Z M 1808 129.054688 " clip-rule="nonzero"/></clipPath></defs><g clip-path="url(#a53439379c)"><path fill="#000000" d="M 292.703125 1997.566406 L 1948.351562 1997.566406 L 1948.351562 2815.4375 L 292.703125 2815.4375 Z M 292.703125 1997.566406 " fill-opacity="1" fill-rule="nonzero"/></g><path fill="#000000" d="M 1060.675781 1129.796875 L 2716.367188 1129.796875 L 2716.367188 1950.984375 L 1060.675781 1950.984375 Z M 1060.675781 1129.796875 " fill-opacity="1" fill-rule="nonzero"/><g clip-path="url(#ab1ab9df6a)"><path fill="#000000" d="M 2769.585938 609.476562 C 2769.585938 874.835938 2554.480469 1089.894531 2289.164062 1089.894531 C 2023.804688 1089.894531 1808.746094 874.835938 1808.746094 609.476562 C 1808.746094 344.160156 2023.804688 129.101562 2289.164062 129.101562 C 2554.480469 129.101562 2769.585938 344.160156 2769.585938 609.476562 Z M 2769.585938 609.476562 " fill-opacity="1" fill-rule="nonzero"/></g></svg>