<svg xmlns="http://www.w3.org/2000/svg" xmlns:xlink="http://www.w3.org/1999/xlink" width="4000" zoomAndPan="magnify" viewBox="0 0 3000 2999.999989" height="4000" preserveAspectRatio="xMidYMid meet" version="1.0"><defs><clipPath id="d8c805952c"><path d="M 292.542969 1997 L 1949 1997 L 1949 2814.453125 L 292.542969 2814.453125 Z M 292.542969 1997 " clip-rule="nonzero"/></clipPath><clipPath id="04a0e2b434"><path d="M 1808 128.90625 L 2770 128.90625 L 2770 1090 L 1808 1090 Z M 1808 128.90625 " clip-rule="nonzero"/></clipPath></defs><g clip-path="url(#d8c805952c)"><path fill="#033567" d="M 292.542969 1997.367188 L 1948.144531 1997.367188 L 1948.144531 2815.214844 L 292.542969 2815.214844 Z M 292.542969 1997.367188 " fill-opacity="1" fill-rule="nonzero"/></g><path fill="#033567" d="M 1060.492188 1129.621094 L 2716.140625 1129.621094 L 2716.140625 1950.789062 L 1060.492188 1950.789062 Z M 1060.492188 1129.621094 " fill-opacity="1" fill-rule="nonzero"/><g clip-path="url(#04a0e2b434)"><path fill="#033567" d="M 2769.355469 609.316406 C 2769.355469 874.667969 2554.257812 1089.722656 2288.949219 1089.722656 C 2023.59375 1089.722656 1808.539062 874.667969 1808.539062 609.316406 C 1808.539062 344.007812 2023.59375 128.953125 2288.949219 128.953125 C 2554.257812 128.953125 2769.355469 344.007812 2769.355469 609.316406 Z M 2769.355469 609.316406 " fill-opacity="1" fill-rule="nonzero"/></g></svg>