<svg xmlns="http://www.w3.org/2000/svg" xmlns:xlink="http://www.w3.org/1999/xlink" width="4000" zoomAndPan="magnify" viewBox="0 0 3000 2999.999989" height="4000" preserveAspectRatio="xMidYMid meet" version="1.0"><defs><clipPath id="eda1f973cd"><path d="M 2004 105.519531 L 2828.183594 105.519531 L 2828.183594 930 L 2004 930 Z M 2004 105.519531 " clip-rule="nonzero"/></clipPath><clipPath id="3fcc711319"><path d="M 174.96875 142 L 1631 142 L 1631 2249 L 174.96875 2249 Z M 174.96875 142 " clip-rule="nonzero"/></clipPath></defs><path fill="#2f5249" d="M 1151.644531 1080.832031 L 2714.464844 1080.832031 L 2714.464844 1676.886719 L 1151.644531 1676.886719 Z M 1151.644531 1080.832031 " fill-opacity="1" fill-rule="nonzero"/><path fill="#2f5249" d="M 2118.410156 1080.832031 L 2714.464844 1080.832031 L 2714.464844 2643.652344 L 2118.410156 2643.652344 Z M 2118.410156 1080.832031 " fill-opacity="1" fill-rule="nonzero"/><path fill="#2f5249" d="M 858.980469 2512.832031 L 2273.84375 1097.96875 L 2695.300781 1519.425781 L 1280.4375 2934.289062 Z M 858.980469 2512.832031 " fill-opacity="1" fill-rule="nonzero"/><g clip-path="url(#eda1f973cd)"><path fill="#2f5249" d="M 2828.550781 517.613281 C 2828.550781 531.101562 2827.886719 544.589844 2826.5625 558.003906 C 2825.234375 571.453125 2823.246094 584.757812 2820.628906 598.023438 C 2817.976562 611.25 2814.695312 624.332031 2810.789062 637.230469 C 2806.882812 650.164062 2802.351562 662.839844 2797.15625 675.296875 C 2791.996094 687.789062 2786.246094 699.949219 2779.871094 711.851562 C 2773.535156 723.792969 2766.570312 735.324219 2759.089844 746.566406 C 2751.609375 757.769531 2743.574219 768.601562 2734.988281 779.03125 C 2726.441406 789.457031 2717.375 799.445312 2707.832031 808.988281 C 2698.285156 818.535156 2688.300781 827.597656 2677.871094 836.148438 C 2667.441406 844.734375 2656.609375 852.769531 2645.40625 860.25 C 2634.167969 867.765625 2622.597656 874.695312 2610.691406 881.03125 C 2598.789062 887.40625 2586.628906 893.15625 2574.136719 898.351562 C 2561.683594 903.511719 2548.96875 908.042969 2536.070312 911.949219 C 2523.175781 915.890625 2510.09375 919.136719 2496.828125 921.789062 C 2483.597656 924.40625 2470.257812 926.394531 2456.84375 927.722656 C 2443.394531 929.046875 2429.941406 929.710938 2416.457031 929.710938 C 2402.96875 929.710938 2389.480469 929.046875 2376.066406 927.722656 C 2362.617188 926.394531 2349.277344 924.40625 2336.046875 921.789062 C 2322.820312 919.136719 2309.738281 915.890625 2296.839844 911.949219 C 2283.90625 908.042969 2271.230469 903.511719 2258.738281 898.351562 C 2246.28125 893.15625 2234.085938 887.40625 2222.179688 881.03125 C 2210.277344 874.695312 2198.707031 867.765625 2187.503906 860.25 C 2176.265625 852.769531 2165.46875 844.734375 2155.003906 836.148438 C 2144.574219 827.597656 2134.589844 818.535156 2125.042969 808.988281 C 2115.5 799.445312 2106.472656 789.457031 2097.886719 779.03125 C 2089.335938 768.601562 2081.304688 757.769531 2073.824219 746.566406 C 2066.304688 735.324219 2059.378906 723.792969 2053.003906 711.851562 C 2046.664062 699.949219 2040.878906 687.789062 2035.71875 675.296875 C 2030.558594 662.839844 2026.027344 650.164062 2022.085938 637.230469 C 2018.179688 624.332031 2014.898438 611.25 2012.28125 598.023438 C 2009.628906 584.757812 2007.675781 571.453125 2006.351562 558.003906 C 2005.023438 544.589844 2004.359375 531.101562 2004.359375 517.613281 C 2004.359375 504.128906 2005.023438 490.640625 2006.351562 477.226562 C 2007.675781 463.777344 2009.628906 450.4375 2012.28125 437.207031 C 2014.898438 423.976562 2018.179688 410.898438 2022.085938 398 C 2026.027344 385.066406 2030.558594 372.386719 2035.71875 359.894531 C 2040.878906 347.441406 2046.664062 335.242188 2053.003906 323.339844 C 2059.378906 311.4375 2066.304688 299.902344 2073.824219 288.664062 C 2081.304688 277.460938 2089.335938 266.628906 2097.886719 256.199219 C 2106.472656 245.734375 2115.5 235.746094 2125.042969 226.203125 C 2134.589844 216.660156 2144.574219 207.632812 2155.003906 199.042969 C 2165.46875 190.496094 2176.265625 182.460938 2187.503906 174.980469 C 2198.707031 167.464844 2210.277344 160.535156 2222.179688 154.199219 C 2234.085938 147.824219 2246.28125 142.039062 2258.738281 136.878906 C 2271.230469 131.71875 2283.90625 127.1875 2296.839844 123.28125 C 2309.738281 119.335938 2322.820312 116.058594 2336.046875 113.441406 C 2349.277344 110.789062 2362.617188 108.835938 2376.066406 107.507812 C 2389.480469 106.183594 2402.96875 105.519531 2416.457031 105.519531 C 2429.941406 105.519531 2443.394531 106.183594 2456.84375 107.507812 C 2470.257812 108.835938 2483.597656 110.789062 2496.828125 113.441406 C 2510.09375 116.058594 2523.175781 119.335938 2536.070312 123.28125 C 2548.96875 127.1875 2561.683594 131.71875 2574.136719 136.878906 C 2586.628906 142.039062 2598.789062 147.824219 2610.691406 154.199219 C 2622.597656 160.535156 2634.167969 167.464844 2645.40625 174.980469 C 2656.609375 182.460938 2667.441406 190.496094 2677.871094 199.042969 C 2688.300781 207.632812 2698.285156 216.660156 2707.832031 226.203125 C 2717.375 235.746094 2726.441406 245.734375 2734.988281 256.199219 C 2743.574219 266.628906 2751.609375 277.460938 2759.089844 288.664062 C 2766.570312 299.902344 2773.535156 311.4375 2779.871094 323.339844 C 2786.246094 335.242188 2791.996094 347.441406 2797.15625 359.894531 C 2802.351562 372.386719 2806.882812 385.066406 2810.789062 398 C 2814.695312 410.898438 2817.976562 423.976562 2820.628906 437.207031 C 2823.246094 450.4375 2825.234375 463.777344 2826.5625 477.226562 C 2827.886719 490.640625 2828.550781 504.128906 2828.550781 517.613281 Z M 2828.550781 517.613281 " fill-opacity="1" fill-rule="nonzero"/></g><g clip-path="url(#3fcc711319)"><path fill="#2f5249" d="M 1630.699219 162.5625 C 1365.671875 114.363281 1092.132812 154.160156 851.796875 275.914062 C 611.496094 397.628906 417.589844 594.632812 299.632812 836.8125 C 181.675781 1079.027344 146.1875 1353.15625 198.515625 1617.410156 C 250.84375 1881.664062 375.726562 2069.78125 577.078125 2248.726562 L 963.414062 1879.820312 C 853.824219 1782.425781 779.089844 1651.863281 750.605469 1508.039062 C 722.121094 1364.25 741.429688 1215.042969 805.621094 1083.230469 C 869.816406 951.414062 975.355469 844.21875 1106.136719 777.960938 C 1236.917969 711.703125 1385.792969 690.039062 1530.023438 716.273438 Z M 1630.699219 162.5625 " fill-opacity="1" fill-rule="nonzero"/></g></svg>