<svg xmlns="http://www.w3.org/2000/svg" xmlns:xlink="http://www.w3.org/1999/xlink" width="4000" zoomAndPan="magnify" viewBox="0 0 3000 2999.999989" height="4000" preserveAspectRatio="xMidYMid meet" version="1.0"><defs><clipPath id="b56b82b227"><path d="M 2004 105.667969 L 2828.4375 105.667969 L 2828.4375 930 L 2004 930 Z M 2004 105.667969 " clip-rule="nonzero"/></clipPath><clipPath id="23a0c49708"><path d="M 175.125 142 L 1631 142 L 1631 2249 L 175.125 2249 Z M 175.125 142 " clip-rule="nonzero"/></clipPath></defs><path fill="#000000" d="M 1151.839844 1081.019531 L 2714.714844 1081.019531 L 2714.714844 1677.09375 L 1151.839844 1677.09375 Z M 1151.839844 1081.019531 " fill-opacity="1" fill-rule="nonzero"/><path fill="#000000" d="M 2118.640625 1081.019531 L 2714.714844 1081.019531 L 2714.714844 2643.894531 L 2118.640625 2643.894531 Z M 2118.640625 1081.019531 " fill-opacity="1" fill-rule="nonzero"/><path fill="#000000" d="M 859.164062 2513.070312 L 2274.078125 1098.15625 L 2695.550781 1519.628906 L 1280.636719 2934.542969 Z M 859.164062 2513.070312 " fill-opacity="1" fill-rule="nonzero"/><g clip-path="url(#b56b82b227)"><path fill="#000000" d="M 2828.804688 517.78125 C 2828.804688 531.269531 2828.144531 544.757812 2826.816406 558.171875 C 2825.488281 571.621094 2823.5 584.925781 2820.882812 598.191406 C 2818.230469 611.421875 2814.949219 624.503906 2811.042969 637.402344 C 2807.136719 650.335938 2802.605469 663.011719 2797.410156 675.46875 C 2792.25 687.960938 2786.5 700.121094 2780.125 712.023438 C 2773.785156 723.964844 2766.820312 735.5 2759.339844 746.738281 C 2751.859375 757.941406 2743.828125 768.777344 2735.238281 779.207031 C 2726.691406 789.632812 2717.625 799.621094 2708.082031 809.167969 C 2698.535156 818.710938 2688.550781 827.777344 2678.121094 836.324219 C 2667.691406 844.914062 2656.855469 852.945312 2645.652344 860.425781 C 2634.414062 867.945312 2622.84375 874.871094 2610.941406 881.210938 C 2599.035156 887.585938 2586.875 893.335938 2574.382812 898.53125 C 2561.925781 903.691406 2549.214844 908.222656 2536.316406 912.128906 C 2523.417969 916.074219 2510.335938 919.316406 2497.070312 921.96875 C 2483.839844 924.585938 2470.5 926.574219 2457.085938 927.902344 C 2443.632812 929.226562 2430.183594 929.890625 2416.695312 929.890625 C 2403.207031 929.890625 2389.71875 929.226562 2376.304688 927.902344 C 2362.855469 926.574219 2349.515625 924.585938 2336.285156 921.96875 C 2323.054688 919.316406 2309.972656 916.074219 2297.074219 912.128906 C 2284.140625 908.222656 2271.464844 903.691406 2258.96875 898.53125 C 2246.515625 893.335938 2234.316406 887.585938 2222.414062 881.210938 C 2210.511719 874.871094 2198.9375 867.945312 2187.738281 860.425781 C 2176.496094 852.945312 2165.699219 844.914062 2155.234375 836.324219 C 2144.804688 827.777344 2134.816406 818.710938 2125.273438 809.167969 C 2115.726562 799.621094 2106.699219 789.632812 2098.113281 779.207031 C 2089.5625 768.777344 2081.53125 757.941406 2074.050781 746.738281 C 2066.53125 735.5 2059.605469 723.964844 2053.226562 712.023438 C 2046.890625 700.121094 2041.105469 687.960938 2035.945312 675.46875 C 2030.785156 663.011719 2026.253906 650.335938 2022.308594 637.402344 C 2018.402344 624.503906 2015.125 611.421875 2012.507812 598.191406 C 2009.855469 584.925781 2007.902344 571.621094 2006.574219 558.171875 C 2005.246094 544.757812 2004.585938 531.269531 2004.585938 517.78125 C 2004.585938 504.292969 2005.246094 490.804688 2006.574219 477.390625 C 2007.902344 463.941406 2009.855469 450.601562 2012.507812 437.371094 C 2015.125 424.140625 2018.402344 411.058594 2022.308594 398.160156 C 2026.253906 385.226562 2030.785156 372.546875 2035.945312 360.054688 C 2041.105469 347.601562 2046.890625 335.402344 2053.226562 323.5 C 2059.605469 311.597656 2066.53125 300.0625 2074.050781 288.820312 C 2081.53125 277.621094 2089.5625 266.785156 2098.113281 256.355469 C 2106.699219 245.890625 2115.726562 235.902344 2125.273438 226.359375 C 2134.816406 216.8125 2144.804688 207.785156 2155.234375 199.199219 C 2165.699219 190.648438 2176.496094 182.617188 2187.738281 175.136719 C 2198.9375 167.617188 2210.511719 160.6875 2222.414062 154.351562 C 2234.316406 147.976562 2246.515625 142.191406 2258.96875 137.03125 C 2271.464844 131.871094 2284.140625 127.339844 2297.074219 123.433594 C 2309.972656 119.488281 2323.054688 116.210938 2336.285156 113.59375 C 2349.515625 110.941406 2362.855469 108.988281 2376.304688 107.660156 C 2389.71875 106.332031 2403.207031 105.667969 2416.695312 105.667969 C 2430.183594 105.667969 2443.632812 106.332031 2457.085938 107.660156 C 2470.5 108.988281 2483.839844 110.941406 2497.070312 113.59375 C 2510.335938 116.210938 2523.417969 119.488281 2536.316406 123.433594 C 2549.214844 127.339844 2561.925781 131.871094 2574.382812 137.03125 C 2586.875 142.191406 2599.035156 147.976562 2610.941406 154.351562 C 2622.84375 160.6875 2634.414062 167.617188 2645.652344 175.136719 C 2656.855469 182.617188 2667.691406 190.648438 2678.121094 199.199219 C 2688.550781 207.785156 2698.535156 216.8125 2708.082031 226.359375 C 2717.625 235.902344 2726.691406 245.890625 2735.238281 256.355469 C 2743.828125 266.785156 2751.859375 277.621094 2759.339844 288.820312 C 2766.820312 300.0625 2773.785156 311.597656 2780.125 323.5 C 2786.5 335.402344 2792.25 347.601562 2797.410156 360.054688 C 2802.605469 372.546875 2807.136719 385.226562 2811.042969 398.160156 C 2814.949219 411.058594 2818.230469 424.140625 2820.882812 437.371094 C 2823.5 450.601562 2825.488281 463.941406 2826.816406 477.390625 C 2828.144531 490.804688 2828.804688 504.292969 2828.804688 517.78125 Z M 2828.804688 517.78125 " fill-opacity="1" fill-rule="nonzero"/></g><g clip-path="url(#23a0c49708)"><path fill="#000000" d="M 1630.910156 162.714844 C 1365.871094 114.515625 1092.324219 154.3125 851.976562 276.070312 C 611.667969 397.792969 417.757812 594.800781 299.792969 836.988281 C 181.832031 1079.214844 146.34375 1353.351562 198.671875 1617.617188 C 251.003906 1881.878906 375.890625 2070.003906 577.25 2248.957031 L 963.601562 1880.035156 C 854.003906 1782.636719 779.269531 1652.070312 750.785156 1508.238281 C 722.296875 1364.445312 741.605469 1215.234375 805.804688 1083.414062 C 870 951.597656 975.542969 844.394531 1106.328125 778.136719 C 1237.113281 711.878906 1385.992188 690.210938 1530.230469 716.449219 Z M 1630.910156 162.714844 " fill-opacity="1" fill-rule="nonzero"/></g></svg>